<svg xmlns="http://www.w3.org/2000/svg" xmlns:xlink="http://www.w3.org/1999/xlink">
  <defs>
    <symbol viewBox="0 0 14 14" id="area" fill='currentcolor'>
        <path fill-rule="evenodd" clip-rule="evenodd" d="M3.53674 2.83508C5.45031 0.92151 8.55282 0.92151 10.4664 2.83508C12.38 4.74865 12.38 7.85116 10.4664 9.76473L7.00156 13.2295L3.53674 9.76473C1.62317 7.85116 1.62317 4.74865 3.53674 2.83508ZM7.00156 7.6999C7.77476 7.6999 8.40156 7.0731 8.40156 6.2999C8.40156 5.5267 7.77476 4.8999 7.00156 4.8999C6.22836 4.8999 5.60156 5.5267 5.60156 6.2999C5.60156 7.0731 6.22836 7.6999 7.00156 7.6999Z" fill="currentcolor"/>
    </symbol>

    <symbol viewBox="0 0 14 14" id="fish" fill='currentcolor'>
        <path fill-rule="evenodd" clip-rule="evenodd" d="M13 6.99947C12.1913 4.84853 8.68618 1.4002 3.43264 6.22274C3.34994 6.29954 3.23297 6.28034 3.17048 6.18009C2.30534 4.80801 1.59341 4.75897 1.07914 5.21348C1.03274 5.25613 1.00455 5.31593 1.00047 5.38848C0.996447 5.46103 1.01861 5.5272 1.061 5.57624C1.34131 5.89847 1.63982 6.36147 1.9564 6.99948C1.6398 7.63749 1.34129 8.10056 1.061 8.42272C1.01868 8.47395 0.996447 8.53793 1.00047 8.61048C1.00448 8.68304 1.03274 8.74276 1.07914 8.78548C1.59341 9.23999 2.30534 9.19302 3.17048 7.81887C3.23302 7.72075 3.34994 7.70155 3.43264 7.77622C8.68618 12.6008 12.1912 9.15256 13 6.9995V6.99947ZM10.6243 5.84078C10.8723 5.84078 11.072 6.05205 11.072 6.31448C11.072 6.57692 10.8723 6.78818 10.6243 6.78818C10.3782 6.78818 10.1766 6.57692 10.1766 6.31448C10.1766 6.21635 10.2048 6.12672 10.2532 6.05205C10.2572 6.04135 10.2673 6.0371 10.2774 6.03922C10.2875 6.03922 10.2955 6.0456 10.2995 6.0563C10.3197 6.11178 10.3721 6.15018 10.4326 6.15018C10.5113 6.15018 10.5758 6.08188 10.5758 5.9987C10.5758 5.95817 10.5597 5.9219 10.5355 5.89412C10.5295 5.88562 10.5275 5.87492 10.5295 5.86635C10.5335 5.85565 10.5416 5.84928 10.5516 5.84715C10.5758 5.8429 10.6 5.84077 10.6242 5.84077L10.6243 5.84078ZM8.10935 3.10527C7.12114 2.29439 5.94139 1.66496 5.056 2.19626C4.59618 2.47364 5.61058 2.98362 5.79613 3.4851C5.84052 3.60463 5.86871 3.73479 5.88887 3.86492C5.8969 3.92897 5.92918 3.98013 5.98161 4.01003C6.03404 4.04205 6.0925 4.0463 6.147 4.02072C6.80644 3.73264 7.43165 3.55127 8.02047 3.45953C8.09707 3.44883 8.15559 3.39335 8.17575 3.3123C8.19591 3.23337 8.16972 3.15438 8.10919 3.10535L8.10935 3.10527ZM8.10935 10.8959C7.12114 11.7047 5.94139 12.3362 5.056 11.8028C4.59618 11.5254 5.61058 11.0154 5.79613 10.514C5.84052 10.3944 5.86871 10.2643 5.88887 10.1341C5.8969 10.0701 5.92918 10.0211 5.98161 9.98904C6.03404 9.95701 6.0925 9.95489 6.147 9.97834C6.80644 10.2664 7.43165 10.4478 8.02047 10.5395C8.09707 10.5502 8.15559 10.6078 8.17575 10.6868C8.19591 10.7657 8.16972 10.8447 8.10919 10.8959L8.10935 10.8959ZM10.6243 5.55493C11.0216 5.55493 11.3422 5.89423 11.3422 6.31459C11.3422 6.73495 11.0216 7.07425 10.6243 7.07425C10.229 7.07425 9.90631 6.73495 9.90631 6.31459C9.90631 5.89423 10.229 5.55493 10.6243 5.55493Z" fill="currentcolor"/>
    </symbol>

    <symbol viewBox="0 0 24 24" id="info" fill='none'>
        <path d="M13 16H12V12H11M12 8H12.01M21 12C21 16.9706 16.9706 21 12 21C7.02944 21 3 16.9706 3 12C3 7.02944 7.02944 3 12 3C16.9706 3 21 7.02944 21 12Z" stroke="currentcolor" stroke-width="2" stroke-linecap="round" stroke-linejoin="round"/>
    </symbol>

    <symbol viewBox="0 0 24 24" id="calendar" fill='none'>
      <path d="M7.81677 3C7.57535 3 7.37955 3.19581 7.37955 3.43722V7.15389C7.37955 7.39545 7.57536 7.59111 7.81677 7.59111C8.05833 7.59111 8.25399 7.39529 8.25399 7.15389V3.43722C8.25399 3.19581 8.05817 3 7.81677 3ZM16.562 3C16.3205 3 16.1247 3.19581 16.1247 3.43722V7.15389C16.1247 7.39545 16.3206 7.59111 16.562 7.59111C16.8035 7.59111 16.9992 7.39529 16.9992 7.15389V3.43722C16.9992 3.19581 16.8034 3 16.562 3ZM4.75595 4.31186C3.78402 4.31186 3 5.09572 3 6.06781V9.99611H21.3649V6.06781C21.3649 5.09588 20.5809 4.31186 19.609 4.31186H17.4362V6.17696C17.7045 6.41716 17.8735 6.76562 17.8735 7.15389C17.8735 7.87845 17.2862 8.46574 16.5616 8.46574C15.8372 8.46574 15.2497 7.87845 15.2497 7.15389C15.2497 6.76561 15.4189 6.41714 15.687 6.17696V4.31186H8.68379V6.17029C8.95616 6.41063 9.12788 6.76231 9.12788 7.15408C9.12788 7.87865 8.54059 8.46594 7.81602 8.46594C7.09162 8.46594 6.50417 7.87865 6.50417 7.15408C6.50417 6.76916 6.67055 6.4239 6.93452 6.18384V4.31186H4.75595ZM3 10.8708V20.0462C3 21.0181 3.78387 21.8021 4.75595 21.8021H19.6091C20.581 21.8021 21.3651 21.0183 21.3651 20.0462V10.8708H3Z" fill="currentcolor"/>
      </symbol>

    <symbol viewBox="0 0 20 20" id="plus" fill='none'>
        <path fill-rule="evenodd" clip-rule="evenodd" d="M10 5C10.5523 5 11 5.44772 11 6V9L14 9C14.5523 9 15 9.44772 15 10C15 10.5523 14.5523 11 14 11H11V14C11 14.5523 10.5523 15 10 15C9.44771 15 9 14.5523 9 14V11H6C5.44772 11 5 10.5523 5 10C5 9.44771 5.44772 9 6 9L9 9V6C9 5.44772 9.44771 5 10 5Z" fill="currentcolor"/>
    </symbol>

   <symbol viewBox="0 0 20 20" id="minus" fill='none'>
        <path fill-rule="evenodd" clip-rule="evenodd" d="M5 10C5 9.44772 5.44772 9 6 9L14 9C14.5523 9 15 9.44772 15 10C15 10.5523 14.5523 11 14 11L6 11C5.44772 11 5 10.5523 5 10Z" fill="currentcolor"/>
    </symbol>

     <symbol viewBox="0 0 20 20" id="flag" fill='none'>
        <path fill-rule="evenodd" clip-rule="evenodd" d="M3 6C3 4.34315 4.34315 3 6 3H16C16.3788 3 16.725 3.214 16.8944 3.55279C17.0638 3.89157 17.0273 4.29698 16.8 4.6L14.25 8L16.8 11.4C17.0273 11.703 17.0638 12.1084 16.8944 12.4472C16.725 12.786 16.3788 13 16 13H6C5.44772 13 5 13.4477 5 14V17C5 17.5523 4.55228 18 4 18C3.44772 18 3 17.5523 3 17V6Z" fill="currentcolor"/>
    </symbol>

     <symbol viewBox="0 0 20 20" id="layers" fill='none'>
        <path d="M2.40344 8.81466L9.6 13.095V13.0951C9.72155 13.1673 9.85943 13.2054 9.99986 13.2054C10.1403 13.2054 10.2782 13.1673 10.3997 13.0951L17.5963 8.8148V8.81466C17.8429 8.66748 17.9947 8.39616 17.9947 8.10261C17.9947 7.80922 17.8429 7.53787 17.5963 7.39069L10.3997 3.11038V3.11024C10.2782 3.03803 10.1403 3 9.99986 3C9.85943 3 9.72155 3.03803 9.6 3.11024L2.40344 7.39055V7.39069C2.15686 7.53787 2.00505 7.8092 2.00505 8.10261C2.00505 8.39613 2.15686 8.66748 2.40344 8.81466V8.81466ZM9.99993 4.77283L15.5971 8.06542L9.99993 11.3992L4.40271 8.09851L9.99993 4.77283ZM16.7966 11.1854L9.99993 15.2272L3.20328 11.1854C3.01989 11.0747 2.8013 11.0438 2.59579 11.0994C2.39017 11.155 2.21454 11.2926 2.10773 11.4816C2.0009 11.6714 1.97212 11.8971 2.02768 12.1089C2.08323 12.3206 2.21857 12.5007 2.40358 12.6093L9.60015 16.8896V16.8898C9.7217 16.962 9.85958 17 10 17C10.1404 17 10.2783 16.962 10.3999 16.8898L17.5964 12.6094V12.6093C17.7814 12.5007 17.9168 12.3206 17.9723 12.1089C18.0279 11.8971 17.9991 11.6714 17.8923 11.4816C17.7855 11.2926 17.6098 11.155 17.4042 11.0994C17.1987 11.0438 16.9801 11.0747 16.7967 11.1854H16.7966Z" fill="currentcolor"/>
     </symbol>

     <symbol viewBox="0 0 20 20" id="color" fill='none'>
        <path d="M15.4742 10.6737C15.4742 10.9692 15.4551 11.2666 15.417 11.5601C15.4265 11.4902 15.4361 11.4184 15.4437 11.3485C15.3693 11.9175 15.2225 12.4745 15.0108 13.0036C15.0356 12.9397 15.0623 12.8758 15.0871 12.8119C14.8773 13.329 14.6045 13.8142 14.2784 14.2594C14.3184 14.2055 14.3585 14.1516 14.3985 14.0977C14.0724 14.5389 13.6929 14.9342 13.2732 15.2756C13.3247 15.2337 13.3762 15.1918 13.4277 15.1498C13.0024 15.4932 12.539 15.7768 12.045 15.9964C12.106 15.9704 12.1671 15.9425 12.2281 15.9165C11.7227 16.1401 11.1906 16.2919 10.647 16.3697C10.7138 16.3597 10.7824 16.3498 10.8492 16.3418C10.2885 16.4196 9.71817 16.4196 9.15745 16.3418C9.22421 16.3518 9.29287 16.3617 9.35962 16.3697C8.81606 16.2919 8.28393 16.1381 7.77852 15.9165C7.83956 15.9425 7.90059 15.9704 7.96162 15.9964C7.46765 15.7768 7.00419 15.4913 6.57889 15.1498C6.63039 15.1918 6.68188 15.2337 6.73338 15.2756C6.31188 14.9342 5.93425 14.5369 5.6081 14.0977C5.64815 14.1516 5.68821 14.2055 5.72826 14.2594C5.40022 13.8142 5.12938 13.329 4.91957 12.8119C4.94437 12.8758 4.97107 12.9397 4.99586 13.0036C4.78225 12.4745 4.63731 11.9175 4.56292 11.3485C4.57246 11.4184 4.582 11.4902 4.58963 11.5601C4.51524 10.9752 4.51524 10.3842 4.58772 9.79922C4.57818 9.86909 4.56865 9.94097 4.56102 10.0108C4.6354 9.43786 4.78226 8.87685 4.99587 8.34376C4.97108 8.40765 4.94438 8.47154 4.91959 8.53543C5.13129 8.01436 5.40592 7.52519 5.73587 7.07797C5.69582 7.13188 5.65577 7.18578 5.61572 7.23969C5.90752 6.84836 6.23747 6.49099 6.57314 6.14161C6.97364 5.72236 7.3837 5.31705 7.79949 4.91576C8.5433 4.197 9.30047 3.49423 10.0653 2.79945C10.2255 2.6537 10.3857 2.50996 10.5478 2.36621H9.46833C9.92226 2.77152 10.3724 3.18278 10.8187 3.59608C11.6617 4.37673 12.497 5.16733 13.2981 5.9939C13.6814 6.39122 14.0648 6.79452 14.3966 7.23973C14.3566 7.18582 14.3165 7.13192 14.2765 7.07801C14.6064 7.52523 14.8811 8.01436 15.0928 8.53546C15.068 8.47158 15.0413 8.40769 15.0165 8.3438C15.2301 8.87688 15.3769 9.4379 15.4513 10.0109C15.4418 9.941 15.4322 9.86913 15.4246 9.79925C15.4551 10.0887 15.4742 10.3802 15.4742 10.6737C15.4761 11.091 15.8251 11.4923 16.2371 11.4723C16.6491 11.4524 17.0019 11.1209 17 10.6737C16.9962 9.43987 16.6987 8.218 16.1322 7.13591C15.7355 6.37922 15.1919 5.72836 14.6141 5.11744C14.08 4.55044 13.5231 4.00739 12.9605 3.47033C12.436 2.96919 11.9058 2.47407 11.3699 1.98491C11.099 1.73734 10.8263 1.48778 10.5517 1.2442C10.5479 1.24021 10.544 1.23821 10.5402 1.23422C10.3896 1.10045 10.2065 0.990646 10.0005 1.00063C9.78876 1.01061 9.62283 1.09047 9.4607 1.23422C9.12503 1.5337 8.79316 1.83718 8.46132 2.14063C7.76138 2.7835 7.06904 3.43238 6.39006 4.09919C5.77975 4.69814 5.15416 5.3031 4.62587 5.9839C4.38556 6.29136 4.1605 6.61282 3.96788 6.9542C3.77525 7.2956 3.61885 7.65496 3.47771 8.02234C3.20689 8.72511 3.06385 9.47578 3.01426 10.2305C2.93225 11.5302 3.20689 12.8399 3.76379 13.9999C4.29208 15.1 5.10268 16.0323 6.06583 16.7311C7.05568 17.4498 8.221 17.8551 9.41491 17.9709C10.6375 18.0907 11.8638 17.8352 12.9757 17.3021C14.0494 16.789 14.9535 15.9644 15.6572 14.9801C16.0139 14.481 16.2828 13.938 16.5079 13.363C16.7386 12.772 16.8703 12.1611 16.9465 11.5302C16.9809 11.2447 16.9999 10.9592 16.9999 10.6717C16.9999 10.2544 16.649 9.85309 16.237 9.87306C15.8232 9.89502 15.4741 10.2264 15.4741 10.6737L15.4742 10.6737Z" fill="currentcolor"/>
        <path d="M16.2367 10.6732C16.2367 14.2789 13.4445 17.2019 10 17.2019V1.80078C10 1.80078 13.6713 5.07106 14.8159 6.52669C15.7028 7.65273 16.2368 9.09822 16.2368 10.6736L16.2367 10.6732Z" fill="currentcolor"/>
     </symbol>

     <symbol viewBox="0 0 20 20" id="compass" fill='none'>
        <path d="M6.07413 11.963L9.61241 18.658C9.66879 18.7629 9.75295 18.8501 9.85566 18.9105C9.95836 18.9707 10.0757 19.0017 10.1948 18.9999C10.3142 18.9976 10.4305 18.962 10.5307 18.897C10.6309 18.8321 10.7108 18.7404 10.7615 18.6323L13.9368 11.9167C13.9917 11.8034 14.0115 11.6763 13.9936 11.5516C13.9758 11.427 13.9211 11.3105 13.8366 11.2171C13.7165 11.0795 13.5429 11.0004 13.3602 11C13.2896 11.0001 13.2195 11.0116 13.1527 11.0342L10.6012 11.8837L10.6012 11.8836C10.1901 12.0193 9.74623 12.0193 9.33518 11.8836L6.84577 11.0549C6.6826 11.0006 6.5044 11.0138 6.35106 11.0917C6.19772 11.1697 6.08211 11.3057 6.03008 11.4695C5.97806 11.6333 5.99398 11.811 6.07423 11.963L6.07413 11.963ZM6.47389 11.5208C6.50222 11.4869 6.54017 11.4624 6.58269 11.4505C6.62527 11.4386 6.67048 11.4399 6.71228 11.4542L9.20169 12.2829C9.69936 12.4474 10.2368 12.4474 10.7345 12.2829L13.2859 11.4336C13.3269 11.419 13.3713 11.4173 13.4133 11.4285C13.4553 11.4398 13.493 11.4635 13.5212 11.4966C13.5503 11.5286 13.5692 11.5687 13.5753 11.6115C13.5815 11.6544 13.5745 11.6981 13.5555 11.7371L10.3803 18.4527C10.3632 18.49 10.3358 18.5217 10.3013 18.5441C10.2668 18.5664 10.2267 18.5786 10.1856 18.5789L10.1802 18.5792C10.14 18.5796 10.1005 18.5688 10.0661 18.548C10.0316 18.5273 10.0036 18.4973 9.98531 18.4616L6.44732 11.7665L6.44727 11.7665C6.42609 11.7278 6.41731 11.6834 6.42206 11.6395C6.42687 11.5956 6.44498 11.5541 6.47403 11.5208L6.47389 11.5208Z" fill="currentcolor"/>
        <path d="M9.39634 2.26083L6.04366 9.35057C5.99252 9.45862 5.98604 9.58246 6.02561 9.69526C6.06513 9.8081 6.14757 9.90081 6.25499 9.95349C6.36246 10.0061 6.48632 10.0144 6.59988 9.97665L9.2941 9.07988C9.77365 8.92026 10.292 8.92026 10.7716 9.07988L13.4001 9.95482C13.5159 9.99333 13.6423 9.9839 13.751 9.92859C13.8598 9.87334 13.9418 9.77678 13.9787 9.66064C14.0156 9.54444 14.0043 9.41837 13.9473 9.3106L10.2116 2.24272C10.1586 2.14248 10.0702 2.06562 9.96346 2.02712C9.85676 1.98861 9.73956 1.99118 9.63465 2.03443C9.5298 2.07763 9.44484 2.15833 9.3964 2.2608L9.39634 2.26083Z" fill="currentcolor"/>     
     </symbol>

   <symbol viewBox="0 0 20 20" id="logo" fill='none'>
   <path d="M304.51 240.25C303.796 242.051 302.851 243.752 301.7 245.31C293.296 258.787 283.106 271.065 271.41 281.81C266.95 285.81 262.28 289.65 257.41 293.25C251.22 297.835 244.74 302.014 238.01 305.76C231.959 309.115 225.711 312.1 219.3 314.7C215.113 316.42 210.866 317.97 206.56 319.35C203.56 320.35 200.43 321.15 197.34 321.96C194.25 322.77 191.34 323.47 188.28 324.11C186.28 324.54 184.18 324.96 182.09 325.22C179.09 325.6 176.09 326.13 173.09 326.56C172.46 326.65 171.81 326.56 171.18 326.67C163.404 327.523 155.576 327.804 147.76 327.51C144.455 327.521 141.154 327.266 137.89 326.75C137.371 326.701 136.85 326.681 136.33 326.69C132.86 326.38 129.42 325.89 125.97 325.35C123.7 325 121.44 324.59 119.18 324.17C116.05 323.58 112.96 322.76 109.87 321.99C107.5 321.4 105.16 320.72 102.82 319.99C98.8197 318.83 94.9297 317.45 91.0497 315.99C86.3297 314.2 81.6997 312.17 77.1597 309.99C70.2294 306.634 63.5311 302.819 57.1097 298.57C52.6564 295.61 48.3431 292.463 44.1697 289.13C37.0541 283.405 30.4002 277.129 24.2697 270.36C19.2943 264.924 14.6969 259.154 10.5097 253.09C7.50972 248.76 4.66973 244.36 2.05973 239.79C1.90973 239.52 1.82973 239.18 1.48973 239.05C1.23973 238.39 1.75971 238 2.06971 237.57C9.06971 228.1 18.3097 221.71 29.2697 217.63C37.5442 214.689 46.0326 212.389 54.6597 210.75C60.5397 209.54 66.4697 208.61 72.4297 207.86C78.2364 207.133 84.043 206.423 89.8497 205.73C94.3597 205.2 98.8497 204.73 103.38 204.24C107.02 203.82 110.64 203.29 114.28 202.88C117.64 202.5 121.01 202.2 124.38 201.88C127.23 201.59 130.08 201.22 132.94 201.01C135.25 200.83 137.55 200.62 139.86 200.48C144.16 200.22 148.456 199.903 152.75 199.53C157.316 199.143 161.856 198.573 166.37 197.82C173.692 196.548 180.939 194.879 188.08 192.82C197.17 190.344 205.983 186.943 214.38 182.67C221.066 179.162 227.361 174.955 233.16 170.12C238.946 165.325 244.3 160.032 249.16 154.3C254.489 147.969 259.213 141.152 263.27 133.94C267.793 125.96 271.659 117.626 274.83 109.02C276.32 105.02 277.55 100.88 278.65 96.7298C278.75 96.3398 278.73 95.8298 279.47 95.5298C279.14 97.4498 278.82 99.2398 278.47 101.03C277.58 106.36 276.68 111.69 275.87 117.03C275.14 121.92 274.64 126.83 274.18 131.74C273.89 134.74 273.71 137.84 273.51 140.89C273.26 144.89 272.85 148.89 272.67 152.95C272.309 158.653 272.239 164.37 272.46 170.08C272.705 174.816 273.31 179.526 274.27 184.17C276.386 194.335 279.671 204.22 284.06 213.63C288.148 222.272 293.769 230.102 300.65 236.74C301.773 238.078 303.071 239.258 304.51 240.25Z" fill="#F4C25A"/>
<path d="M87.7409 140.45C85.1309 134.34 80.4409 130.95 74.2109 129.45C72.2533 128.98 70.2079 129.022 68.2709 129.57C63.0509 131.04 61.6109 136.05 65.2709 140.08C68.0109 143.08 71.6009 144.62 75.4209 145.61C81.146 146.991 87.0901 147.209 92.9009 146.25C103.841 144.66 114.261 141.13 124.741 137.8C139.241 133.2 153.601 128.11 168.241 123.94C176.101 121.7 184.071 120.1 192.301 120.47C198.301 120.74 204.101 122.04 209.021 125.81C211.078 127.305 212.821 129.191 214.149 131.36C215.477 133.528 216.365 135.938 216.761 138.45C216.761 138.65 216.881 138.84 216.571 139.05C215.675 137.211 214.538 135.499 213.191 133.96C208.521 128.65 200.681 126.27 194.391 128.36C191.291 129.36 188.821 131.23 187.901 134.53C186.981 137.83 188.291 140.41 190.711 142.53C193.134 144.516 196.078 145.763 199.191 146.12C204.961 147.03 210.531 146.07 216.191 144.92C225.981 142.92 235.081 138.92 244.651 136.37C250.179 134.829 255.82 133.722 261.521 133.06C261.741 133.06 262.031 132.86 262.161 133.13C262.291 133.4 262.011 133.73 261.861 133.99C258.765 139.445 255.283 144.672 251.441 149.63C242.582 161.116 231.733 170.918 219.411 178.57C209.601 184.57 198.961 188.57 187.951 191.74C179.264 194.259 170.413 196.17 161.461 197.46C156.161 198.2 150.831 198.61 145.461 198.99C139.731 199.39 133.981 199.71 128.261 200.35C122.001 201.04 115.721 201.64 109.461 202.35C103.001 203.08 96.5509 203.91 90.0909 204.67C84.2709 205.36 78.4309 205.96 72.6109 206.67C64.4307 207.7 56.3072 209.138 48.2709 210.98C40.3476 212.634 32.597 215.028 25.1209 218.13C22.4068 219.296 19.7771 220.649 17.2509 222.18C16.7109 222.51 16.4309 222.61 16.0909 221.89C12.9208 215.355 10.1621 208.629 7.83086 201.75C5.16241 193.639 3.15584 185.325 1.83086 176.89C0.429348 167.961 -0.173027 158.926 0.0308763 149.89C0.120876 145.78 0.510879 141.67 0.720879 137.56C0.780879 136.45 1.25087 135.99 2.34087 135.66C9.78087 133.41 16.9909 130.47 24.2809 127.79C32.7309 124.69 41.1509 121.49 49.9509 119.44C55.4226 118.072 61.0707 117.546 66.7009 117.88C72.1309 118.28 77.2609 119.7 81.4909 123.34C83.7745 125.243 85.5606 127.673 86.6948 130.42C87.8291 133.168 88.2773 136.15 88.0009 139.11C87.9472 139.562 87.8603 140.01 87.7409 140.45V140.45Z" fill="#2C2F5C"/>
<path d="M84.2006 100.82C84.8499 101.615 85.3451 102.524 85.6606 103.5V103.5L85.4206 103.82C85.4007 103.938 85.3637 104.053 85.3106 104.16C82.8748 107.642 80.734 111.322 78.9106 115.16C78.2706 116.57 77.2706 117.89 77.2206 119.57C76.1306 119.19 75.0606 118.75 73.9506 118.42C69.4061 117.116 64.6618 116.651 59.9506 117.05C56.5318 117.354 53.1331 117.851 49.7706 118.54C47.3006 119.01 44.8506 119.92 42.3906 120.63C39.9306 121.34 37.6906 122.31 35.2606 122.91L35.1606 122.86L35.2506 122.92C34.3806 123.38 33.2506 123.39 32.5006 123.76C31.2806 124.34 30.0306 124.82 28.7806 125.3C25.1106 126.71 21.4906 128.3 17.7206 129.37C12.5206 130.88 7.54061 133.02 2.39061 134.63C2.06061 134.73 1.70061 135.05 1.39061 134.8C1.08061 134.55 1.19063 134.06 1.25063 133.68C1.96063 128.89 2.75063 124.12 3.81063 119.39C4.81063 115.12 5.95063 110.92 7.25063 106.74C10.0552 97.8766 13.6705 89.2903 18.0506 81.0902C20.6838 76.0331 23.6434 71.1528 26.9106 66.4802C30.7655 60.9657 34.9463 55.6863 39.4306 50.6702C42.7006 47.0602 46.0906 43.5602 49.6806 40.2802C54.9519 35.4244 60.5702 30.9592 66.4906 26.9202C71.8188 23.298 77.3513 19.9858 83.0606 17.0002C86.1106 15.4102 89.2206 14.0002 92.3606 12.5902C97.0255 10.537 101.799 8.74101 106.661 7.21018C111.547 5.646 116.51 4.33428 121.531 3.28018C125.771 2.42018 130.051 1.81017 134.331 1.19017C142.861 -0.0498291 151.421 -0.00981995 159.981 0.09018C163.271 0.09018 166.561 0.540182 169.851 0.780182C170.671 0.840182 170.981 1.26017 170.851 2.05017V2.17018C170.681 3.17018 170.851 4.48017 170.241 4.99017C169.631 5.50017 168.381 5.09018 167.401 5.09018H165.401C165.071 5.09018 164.731 5.09018 164.721 5.56018C164.711 6.03018 165.061 6.05018 165.391 6.04018C166.711 5.98018 167.991 6.43017 169.321 6.30017C169.651 6.30017 170.121 6.19017 170.151 6.72017C170.181 7.25017 169.671 7.24017 169.291 7.24017C168.291 7.24017 167.211 7.24017 166.171 7.24017C165.781 7.24017 165.261 7.19017 165.271 7.75017C165.281 8.31017 165.691 8.41018 166.131 8.42018C167.051 8.42018 167.971 8.42018 168.891 8.42018C169.241 8.42018 169.671 8.35018 169.691 8.89018C169.711 9.43018 169.391 9.60017 168.931 9.60017H166.651C166.351 9.60017 165.941 9.54017 165.951 10.0202C165.961 10.5002 166.281 10.5302 166.631 10.5502C166.981 10.5702 167.431 10.5502 167.831 10.5502C168.831 10.4902 168.901 10.9202 168.551 11.7202C165.571 18.4602 162.601 25.2035 159.641 31.9502C156.701 38.6702 153.801 45.4002 150.861 52.1102C148.627 57.2235 146.381 62.3302 144.121 67.4302C142.722 67.4216 141.331 67.6204 139.991 68.0202C134.736 69.1022 129.587 70.6414 124.601 72.6202C117.023 75.6777 109.905 79.7699 103.451 84.7802C103.101 85.0502 102.601 85.3002 102.751 85.9102C101.641 85.6402 100.561 85.0002 99.5406 84.8402C97.5406 84.5202 95.5406 83.7402 93.5406 83.5002C91.9706 83.3202 90.4206 82.9102 88.8406 82.8202C87.4856 82.6616 86.1126 82.7735 84.8011 83.1494C83.4897 83.5253 82.2658 84.1578 81.2006 85.0102C80.2606 85.8302 80.1006 87.2502 79.9806 88.5102C79.9269 90.3025 80.2683 92.0846 80.9806 93.7302C81.6906 95.7302 82.8306 97.5402 83.7106 99.4602C83.9765 99.8589 84.157 100.308 84.2406 100.78L84.1906 100.88L84.2006 100.82Z" fill="#EDF3FB"/>
<path d="M180.42 69.7398C179.52 68.8798 179.64 67.6798 179.51 66.6298C179.07 63.0498 178.51 59.4798 178.12 55.8898C177.73 52.2998 177.12 48.8898 176.81 45.3798C176.56 42.6998 176.08 40.0398 175.73 37.3798C175.38 34.7198 175.03 31.9498 174.73 29.2298C174.32 25.9998 173.93 22.7698 173.5 19.5498C173.15 16.8798 172.76 14.2098 172.37 11.5498C172.29 11.0098 172.55 10.8298 173.04 10.8398C173.53 10.8498 174.24 10.8398 174.84 10.8398C175.21 10.8398 175.57 10.5798 175.56 10.1698C175.55 9.75981 175.13 9.7198 174.83 9.6898C174.27 9.6898 173.71 9.6898 173.15 9.6898C172.8 9.6898 172.38 9.73981 172.36 9.19981C172.34 8.65981 172.68 8.4998 173.14 8.4998C173.98 8.4998 174.82 8.4998 175.66 8.4998C176.02 8.4998 176.56 8.66981 176.6 8.05981C176.64 7.44981 176.11 7.58981 175.74 7.53981C174.92 7.37328 174.086 7.29283 173.25 7.2998C172.98 7.2998 172.62 7.29981 172.65 6.91981C172.68 6.53981 173.05 6.5798 173.32 6.5998C174.356 6.5269 175.398 6.58401 176.42 6.7698C176.852 6.85002 177.292 6.8702 177.73 6.8298C178.12 6.8298 178.5 6.73981 178.51 6.27981C178.52 5.81981 178.09 5.70981 177.75 5.66981C177.19 5.64156 176.629 5.64156 176.07 5.66981C175.51 5.66981 174.95 5.66981 174.39 5.66981C172.82 5.55981 172.61 5.26981 172.93 3.72981C172.979 3.53564 173.015 3.33859 173.04 3.13981C173.2 1.32981 173.19 1.3498 175.04 1.5998C180.367 2.29563 185.652 3.28716 190.87 4.5698C198.432 6.5022 205.839 8.99579 213.03 12.0298C221.921 15.7772 230.436 20.3611 238.46 25.7198C242.34 28.2998 246.06 31.0798 249.69 33.9998C267.907 48.7037 282.52 67.38 292.41 88.5998C294.6 93.2498 296.41 98.0498 298.17 102.9C300.208 108.75 301.877 114.721 303.17 120.78C304.225 125.394 304.99 130.07 305.46 134.78C305.58 136.08 305.78 137.38 305.92 138.68C305.99 139.28 305.78 139.48 305.16 139.2C301.028 137.349 296.767 135.802 292.41 134.57C288.875 133.485 285.251 132.719 281.58 132.28C279.971 132.024 278.348 131.863 276.72 131.8C275.82 131.8 275.35 131.38 275.46 130.37C275.75 127.73 275.92 125.07 276.26 122.43C276.66 119.24 277.13 116.06 277.65 112.9C278.45 108.01 279.32 103.12 280.15 98.2298C280.35 97.0598 280.59 95.8898 280.74 94.7098C280.79 94.3098 280.98 93.7098 280.49 93.5198C280.236 93.392 279.954 93.3313 279.671 93.3435C279.387 93.3558 279.111 93.4406 278.87 93.5898C276.52 95.3498 273.72 96.2598 271.14 97.5898C268.02 99.1898 264.79 100.59 261.61 102.05C257.203 104.116 252.803 106.196 248.41 108.29C248.008 108.461 247.577 108.552 247.14 108.56C246.4 108.61 246.21 108.3 246.14 107.56C245.94 103.87 245.53 100.2 245.27 96.5598C245.08 93.9398 244.82 91.3298 244.69 88.7098C244.53 85.5798 244.18 82.4598 243.88 79.3298C243.88 78.9998 243.72 78.7498 244.16 78.5698C245.68 77.9498 245.69 77.7598 244.4 76.6598C244.336 76.6144 244.27 76.5743 244.2 76.5398C244.2 76.2098 244.49 76.2198 244.64 76.0598C245.06 75.6198 245.1 75.2698 244.38 75.2098C243.27 75.1198 242.98 74.5798 243.21 73.5098C243.4 72.6298 243.21 71.6898 243.49 70.7898C243.522 70.7038 243.535 70.6114 243.526 70.5198C243.517 70.4282 243.488 70.3398 243.439 70.2615C243.391 70.1832 243.325 70.1171 243.247 70.0683C243.169 70.0194 243.081 69.9891 242.99 69.9798C242.53 69.9198 242.37 70.2398 242.31 70.6298C242.08 72.0798 241.83 73.5298 241.6 74.9698C241.6 75.1998 241.6 75.6098 241.35 75.5798C240.13 75.4098 240.16 76.6298 239.56 77.1298C239.31 77.3398 238.89 77.5598 239.09 77.9898C239.29 78.4198 239.7 78.2998 240.09 78.3098H240.92C241.04 78.8698 240.7 79.2098 240.51 79.5798C237.223 86.0065 233.936 92.4331 230.65 98.8598C230.34 99.4798 230.06 99.7398 229.28 99.5498C227.967 99.2378 226.628 99.0536 225.28 98.9998C224.7 98.9998 224.37 98.5298 223.85 98.5198C212.653 84.7324 197.499 74.7087 180.43 69.7998L180.42 69.7398ZM269.27 91.9398L267.05 92.2098C266.99 92.2138 266.931 92.231 266.879 92.2601C266.826 92.2892 266.781 92.3295 266.745 92.3781C266.71 92.4268 266.686 92.4826 266.674 92.5417C266.663 92.6007 266.665 92.6615 266.68 92.7198C266.703 92.9073 266.792 93.0806 266.93 93.2098C266.977 93.2476 267.033 93.2722 267.093 93.2811C267.152 93.29 267.213 93.2828 267.269 93.2605C267.325 93.2381 267.374 93.2012 267.411 93.1537C267.448 93.1061 267.472 93.0495 267.48 92.9898C267.65 92.3598 268.12 92.3998 268.6 92.4098C269.08 92.4198 269.25 92.4098 269.26 91.9398C269.58 91.9398 269.92 92.0298 270.26 91.7998C269.84 91.6498 269.51 91.5698 269.27 91.9398ZM285.6 99.1298L285.48 98.8298L285.4 98.8998L285.57 99.1498C285.72 100.49 285.91 100.66 286.9 99.8298C287.276 99.4817 287.719 99.2136 288.202 99.0418C288.685 98.8699 289.198 98.7978 289.71 98.8298C289.525 98.6835 289.313 98.5751 289.086 98.511C288.859 98.4468 288.622 98.4282 288.387 98.456C288.153 98.4839 287.927 98.5578 287.721 98.6734C287.516 98.789 287.335 98.9441 287.19 99.1298C286.6 99.7598 286.11 99.7598 285.57 99.1198L285.6 99.1298ZM270.69 75.3498C270.5 75.3998 270.23 75.3498 270.14 75.5098C270.027 75.7206 269.868 75.9033 269.675 76.0446C269.482 76.1859 269.26 76.2822 269.025 76.3263C268.79 76.3704 268.548 76.3613 268.317 76.2996C268.086 76.2379 267.872 76.1252 267.69 75.9698C267.415 75.8466 267.115 75.7905 266.814 75.8062C266.513 75.8218 266.22 75.9088 265.96 76.0598C266.53 76.4998 267.07 76.2298 267.55 76.4098C269.75 77.2398 269.2 77.2198 270.73 75.4098L272.01 74.5998C271.07 74.3698 270.79 74.7598 270.65 75.3498H270.69ZM255.58 75.3498C254.705 75.6219 253.905 76.0906 253.24 76.7198C252.76 77.1698 252.46 77.1998 251.96 76.7998C251.33 76.1957 250.502 75.8404 249.63 75.7998C249.45 75.7998 249.23 75.6398 249.15 75.9298C249.134 75.9775 249.13 76.0283 249.137 76.078C249.145 76.1277 249.164 76.1749 249.193 76.2158C249.223 76.2567 249.261 76.2902 249.306 76.3135C249.35 76.3367 249.399 76.3492 249.45 76.3498C250.72 76.2398 251.14 77.5398 252.13 77.8298C252.06 78.3198 251.33 78.3198 251.54 78.8298C251.75 79.3398 252.18 79.0898 252.54 79.0498C252.76 79.0498 252.99 79.1798 253.23 79.2098C253.47 79.2398 253.86 79.6398 254.08 79.2098C254.128 79.1238 254.157 79.0289 254.167 78.931C254.177 78.8331 254.166 78.7342 254.136 78.6405C254.106 78.5468 254.057 78.4603 253.993 78.3862C253.928 78.3121 253.849 78.2521 253.76 78.2098C253.536 78.0642 253.322 77.9039 253.12 77.7298C253.64 76.4898 255.12 76.4998 255.62 75.4498C255.9 75.3898 256.26 75.4498 256.35 75.0398C255.92 74.8298 255.73 75.0998 255.54 75.3498H255.58ZM280.24 112.65C280.12 113.35 280.18 113.87 279.95 114.16C279.23 115.04 280.15 115.36 280.5 115.79C280.65 115.97 281.41 116.3 281.38 115.36C281.38 114.66 281.86 114.31 282.51 114.26C283.165 114.153 283.784 113.885 284.31 113.48C283.972 113.34 283.61 113.268 283.245 113.268C282.879 113.268 282.517 113.34 282.18 113.48C281.27 114.03 280.65 113.9 280.2 112.65H280.24ZM278.97 76.5698C280.24 76.1898 280.39 74.9298 281.35 74.4298C281.52 75.3098 281.47 76.1898 282.28 76.6798C282.09 75.9498 281.97 75.2198 281.85 74.4998C281.842 74.3379 281.784 74.1826 281.683 74.0554C281.583 73.9281 281.445 73.8353 281.29 73.7898C280.96 73.7298 280.8 74.0198 280.64 74.2298C280.12 74.9198 279.63 75.6298 278.97 76.5698ZM254.75 90.9098C256.32 89.0798 258.34 90.1098 260.18 90.0798C256.64 89.1698 255.69 89.3098 254.75 90.8998V90.9098ZM283.75 88.0698C283.725 87.5691 283.534 87.0911 283.206 86.7122C282.878 86.3333 282.432 86.0754 281.94 85.9798C281.46 85.8783 280.959 85.9566 280.533 86.2C280.108 86.4434 279.786 86.8348 279.63 87.2998C281.6 86.0898 281.84 85.8298 283.72 88.0598L283.75 88.0698ZM254.75 99.6998C253.19 99.1398 252.29 101.07 250.75 100.53C252.38 101.83 253.27 99.5198 254.68 99.6798L254.75 99.6998ZM250.13 83.3898C249.13 83.1198 248.92 83.9198 248.53 84.3898C248.08 84.3898 248.32 83.7198 247.86 83.6598C247.771 83.836 247.745 84.0376 247.787 84.2306C247.828 84.4237 247.936 84.5964 248.09 84.7198C248.3 84.9498 248.44 85.3098 248.81 85.2698C249.18 85.2298 249.16 84.7998 249.16 84.5098C249.06 83.8698 249.69 83.8398 250.06 83.3798L250.13 83.3898ZM295.9 108.69C295.56 108.57 295.44 108.69 295.46 109.02C295.464 109.254 295.54 109.482 295.677 109.671C295.815 109.861 296.008 110.004 296.23 110.08C296.55 110.18 296.79 109.81 296.8 109.48C296.75 108.87 296.35 108.67 295.84 108.68L295.9 108.69Z" fill="#EDF3FB"/>
<path d="M290.18 222.31C288.501 219.84 287.014 217.246 285.73 214.55C280.388 203.567 276.637 191.88 274.59 179.84C273.587 173.401 273.229 166.879 273.52 160.37C273.75 152.7 274.38 145.06 274.97 137.37C275.119 136.182 275.199 134.987 275.21 133.79C275.21 132.71 275.68 132.63 276.5 132.71C280.394 133.065 284.26 133.687 288.07 134.57C293.46 135.998 298.765 137.731 303.96 139.76C305.88 140.44 306.34 141.45 306.41 143.21C306.771 150.397 306.711 157.599 306.23 164.78C304.755 184.491 299.481 203.731 290.7 221.44C290.57 221.68 290.4 221.93 290.18 222.31Z" fill="#2C2F5C"/>
<path d="M82.4405 95.2502C81.5057 93.4059 80.8999 91.4127 80.6505 89.3602C80.3105 86.2402 82.7705 83.9402 86.4205 83.7702C91.4205 83.5502 96.1405 84.8402 100.82 86.3202C108.82 88.8402 116.55 92.0102 124.55 94.4502C128.46 95.6402 132.41 96.7102 136.36 97.7802C142.04 99.3202 147.77 100.66 153.52 101.89C161.05 103.5 168.62 104.77 176.36 104.64C180.309 104.552 184.238 104.045 188.08 103.13C189.19 102.87 189.55 103.13 189.56 104.28C189.57 105.43 189.39 106.66 189.5 107.87C189.56 108.544 189.755 109.199 190.075 109.796C190.394 110.392 190.832 110.918 191.36 111.34C193.36 113.1 195.92 113.5 198.42 114.01C203.99 115.16 209.53 116.47 215.17 117.26C218.76 117.77 222.36 118.14 225.96 118.57C231.07 119.18 236.21 119.51 241.36 119.67C247.192 119.941 253.033 119.907 258.861 119.57C260.131 119.48 261.42 119.57 262.7 119.51C263.09 119.51 263.49 119.58 263.54 120C263.59 120.42 263.14 120.46 262.88 120.59C262.456 120.813 262.001 120.971 261.53 121.06C260.56 121.202 259.634 121.563 258.823 122.116C258.012 122.669 257.338 123.398 256.85 124.25C256.734 124.452 256.561 124.617 256.354 124.725C256.147 124.833 255.913 124.88 255.68 124.86C251.125 124.849 246.572 124.608 242.04 124.14C238.094 123.86 234.147 123.604 230.2 123.37C227.52 123.21 224.91 122.63 222.26 122.3C218.66 121.85 215.09 121.18 211.47 120.91C209.08 120.761 206.708 120.403 204.38 119.84C202.564 119.388 200.72 119.054 198.86 118.84C197.564 118.65 196.379 118.001 195.52 117.01C191.44 112.94 186.83 110.09 180.72 110.38C177.54 110.53 174.38 109.82 171.21 109.5C166.43 109.02 161.79 107.78 157.07 107.02C154.16 106.55 151.33 105.6 148.41 105.16C141.499 104.147 134.68 102.578 128.02 100.47C122.02 98.5302 116.02 96.3802 109.96 94.4702C104.91 92.8602 99.8705 91.1802 94.7605 89.7202C92.5353 89.0211 90.1717 88.8836 87.8805 89.3202C85.3005 89.8802 82.7805 91.2502 82.7305 94.4302C82.6689 94.7147 82.5715 94.9902 82.4405 95.2502V95.2502Z" fill="#2C2F5C"/>
<path d="M180.42 69.7402C197.489 74.6491 212.643 84.6728 223.84 98.4602L223.37 98.7702H222.69C220.01 98.3702 217.34 97.9602 214.69 97.6402C210.98 97.1902 207.3 96.5202 203.61 95.9802C201.68 95.7002 199.74 95.5102 197.81 95.2702C197.17 95.1902 196.88 95.3802 196.64 96.0802C196.314 97.5159 196.09 98.9729 195.97 100.44C195.42 103.44 195.16 106.51 194.82 109.55C194.74 110.26 194.33 110.9 194.46 111.66C194.52 112.04 194.28 112.07 193.92 111.92C192.851 111.569 191.933 110.867 191.312 109.929C190.691 108.991 190.405 107.871 190.5 106.75C190.5 105.55 190.5 104.35 190.61 103.16C190.61 102.49 190.38 102.22 189.72 102.16C188.285 102.149 186.856 102.351 185.48 102.76C184.41 103.07 184.03 102.7 183.94 101.76C183.81 100.49 183.62 99.2402 183.45 97.9802C182.86 93.5202 182.45 89.0402 181.82 84.5902C181.31 80.9302 180.82 77.2702 180.4 73.5902C180.3 72.6502 180.09 71.7102 179.92 70.7702V70.0902C179.942 69.9785 180.006 69.8797 180.099 69.8144C180.193 69.7491 180.307 69.7225 180.42 69.7402V69.7402Z" fill="#F4C25A"/>
<path d="M102.66 85.9402C102.51 85.3302 103.01 85.0802 103.36 84.8102C109.815 79.8 116.933 75.7077 124.51 72.6502C129.496 70.6715 134.646 69.1323 139.9 68.0502C141.24 67.6504 142.632 67.4516 144.03 67.4602C143.239 69.659 142.335 71.8152 141.32 73.9202C139.39 78.4002 137.51 82.9202 135.47 87.3302C134.28 89.9002 133.24 92.5502 132.05 95.1302C131.8 95.6802 131.67 95.7002 131.12 95.5202C127.8 94.4402 124.44 93.5202 121.12 92.3902C118.12 91.3902 115.12 90.3902 112.23 89.2802C109.07 88.0802 105.85 87.0402 102.66 85.9402Z" fill="#F4C25A"/>
<path d="M77.22 119.57C77.31 117.93 78.22 116.57 78.91 115.19C80.7334 111.351 82.8742 107.672 85.31 104.19C85.3632 104.082 85.4002 103.968 85.42 103.85L85.66 103.53C87.3063 106.252 88.8019 109.063 90.14 111.95C91.7893 115.322 93.0571 118.867 93.92 122.52C94.8671 126.057 95.2052 129.729 94.92 133.38C94.5845 137.685 92.9958 141.797 90.35 145.21C90.1745 145.418 89.9501 145.578 89.697 145.678C89.4439 145.777 89.17 145.812 88.9 145.78C85.994 145.954 83.0789 145.907 80.18 145.64C77.2339 145.375 74.3499 144.636 71.64 143.45C71.4583 143.383 71.2708 143.333 71.08 143.3C71.0259 142.909 70.9992 142.514 71 142.12C71.2297 139.6 71.6407 137.1 72.23 134.64C72.4351 133.158 72.8318 131.709 73.41 130.33C78.92 131.33 83.32 133.96 86.05 138.98C86.4508 139.596 86.6966 140.299 86.7662 141.031C86.8359 141.762 86.7274 142.499 86.45 143.18C86.32 143.47 86.06 144.05 86.55 144.18C87.04 144.31 87.14 143.8 87.35 143.47C90.06 139.12 89.19 134.71 87.56 130.3C86.1694 126.821 83.8049 123.818 80.75 121.65C79.6151 120.888 78.4364 120.193 77.22 119.57V119.57Z" fill="#F4C25A"/>
<path d="M162.65 66.5699C162.83 68.7799 162.25 70.9199 162.01 73.0799C161.8 74.9699 161.56 76.8699 161.3 78.7499C160.94 81.2999 160.84 83.9 160.47 86.45C160 89.66 159.47 92.85 159.23 96.09C159.151 96.6335 159.024 97.1689 158.85 97.6899L149.54 95.6899C148.95 95.5599 148.67 95.3099 148.86 94.5999C150.433 88.7666 151.98 82.9266 153.5 77.0799C153.66 76.4799 153.85 76.4899 154.38 76.5499C156.16 76.7599 157.9 77.1299 159.66 77.4699C160.121 77.6012 160.615 77.5622 161.05 77.3599C159.107 76.8222 157.129 76.4245 155.13 76.17C153.88 76.04 153.94 75.4999 154.13 74.5999C154.83 71.9099 155.49 69.2099 156.13 66.5099L158.02 66.4399L162.65 66.5699Z" fill="#F4C25A"/>
<path d="M257.37 118.57L277.09 97.3999C277.075 98.6231 276.823 99.8319 276.35 100.96C273.379 110.635 269.506 120.01 264.78 128.96C264.39 129.7 263.94 130.41 263.57 131.16C263.48 131.353 263.34 131.518 263.164 131.638C262.988 131.757 262.783 131.827 262.57 131.84C260.45 132.13 258.34 132.45 256.22 132.75C256.02 132.75 255.82 132.75 255.62 132.75C253.87 133.06 253.62 132.84 254.34 131.22C255.567 128.469 257.068 125.849 258.82 123.4C259.49 122.5 260.73 122.88 261.66 122.4C262.24 122.13 262.93 121.95 263.55 121.7C264.17 121.45 265.03 120.8 264.87 119.91C264.794 119.441 264.549 119.017 264.18 118.718C263.811 118.419 263.344 118.267 262.87 118.29C261.639 118.178 260.398 118.229 259.18 118.44C258.583 118.547 257.976 118.591 257.37 118.57ZM263.83 126.91C262.49 126.91 262.08 129.61 260.22 127.91C260.78 129.42 261.32 129.56 262.29 128.55C262.57 128.228 262.91 127.963 263.29 127.77C263.7 127.57 264.05 127.32 263.83 126.87V126.91Z" fill="#EDF3FB"/>
<path d="M138.17 93.0699C138.76 91.0699 139.63 89.0699 140.38 87.1199C141.43 84.3699 142.48 81.6199 143.57 78.8799C144.14 77.4499 144.78 76.0499 145.39 74.6299L145.48 74.6999C145.502 74.7981 145.553 74.8876 145.626 74.957C145.699 75.0264 145.791 75.0726 145.89 75.0899C147.89 75.4299 149.95 75.8299 152 76.0899C153 76.2099 153.18 76.5399 152.93 77.4799C151.47 82.9299 150.07 88.3999 148.64 93.8599C148.23 95.4199 148.21 95.4099 146.64 95.0399C146.14 94.9199 145.64 94.7999 145.13 94.7099C142.86 94.1255 140.555 93.6847 138.23 93.3899L138.17 93.0699Z" fill="#F4C25A"/>
<path d="M164.1 95.26V94.82C164.17 94.821 164.24 94.8065 164.304 94.7775C164.368 94.7486 164.425 94.7059 164.471 94.6524C164.517 94.599 164.55 94.5362 164.569 94.4683C164.588 94.4005 164.591 94.3294 164.58 94.26C164.29 91.26 165.4 88.26 165.06 85.21C165.66 85.15 165.55 84.68 165.55 84.31C165.55 83 165.55 81.69 165.55 80.38V79.94C166.45 79.59 165.86 78.81 166.04 78.25C167.95 78.25 169.85 78.52 171.75 78.71C172.55 78.79 172.75 79.12 172.75 79.84C172.75 81.36 172.75 82.84 172.75 84.4C172.75 89.07 172.75 93.74 172.99 98.4C172.99 99.27 172.99 99.65 171.81 99.46C169.27 99.04 166.68 98.88 164.11 98.61L164.1 95.26Z" fill="#F4C25A"/>
<path d="M228.359 105.57C228.359 105.93 228.359 106.29 228.359 106.65C228.359 107.48 227.939 107.77 227.119 107.65C224.369 107.21 221.629 106.75 218.869 106.39C215.519 105.95 212.169 105.52 208.869 104.99C205.999 104.54 203.109 104.23 200.229 103.88C199.669 103.81 199.159 103.77 199.229 103.02C199.379 101.6 199.529 100.17 199.709 98.7502C199.789 98.1002 200.289 98.2202 200.709 98.2902C205.149 98.9902 209.599 99.5902 214.059 100.16C217.919 100.66 221.769 101.22 225.609 101.87C227.659 102.23 228.489 103.49 228.359 105.57Z" fill="#F4C25A"/>
<path d="M179.481 103.45H179.011H173.451C173.451 102.69 173.521 101.93 173.451 101.18C173.391 100.18 173.751 100.06 174.661 100.18C176.251 100.45 177.871 100.56 179.481 100.74C179.314 100.533 179.102 100.366 178.861 100.254C178.62 100.141 178.357 100.085 178.091 100.09C176.981 100 175.871 99.9501 174.771 99.8201C174.181 99.7501 173.421 99.8201 173.461 98.8201C173.511 97.6601 173.301 96.5201 173.261 95.3701C173.081 90.1501 173.481 84.9301 173.011 79.7101C172.961 79.1301 173.061 78.7101 173.881 78.8801C174.881 79.1301 175.951 78.8101 176.961 79.1601C177.261 79.2601 177.511 79.1601 177.521 78.7401L177.641 78.6401C177.741 78.8501 177.921 79.0601 177.931 79.2701C178.001 83.0501 178.791 86.7601 179.071 90.5201C179.311 93.6801 179.801 96.8201 180.251 99.9601C180.321 100.48 179.741 101.08 180.441 101.51V102.32V102.71C180.011 102.82 179.561 102.88 179.481 103.45Z" fill="#F4C25A"/>
<path d="M275.68 97.0801C273.89 99.0801 271.85 100.67 269.99 102.44C267.76 104.55 265.46 106.58 263.2 108.66C259.94 111.66 256.71 114.66 253.44 117.66C252.44 118.57 252.44 118.53 251.94 117.25C251.206 115.357 250.446 113.473 249.66 111.6C249.34 110.84 249.34 110.38 250.23 109.92C258.23 105.83 266.15 101.67 274.11 97.5401C274.324 97.3571 274.575 97.2215 274.846 97.1422C275.116 97.0629 275.4 97.0418 275.68 97.0801ZM259.41 109.69C259.31 108.9 258.96 108.69 258.41 108.69C258.026 108.759 257.631 108.717 257.27 108.57C257.03 108.42 256.72 108.04 256.56 108.57C256.45 108.98 256.85 109.14 257.16 109.14C257.938 109.176 258.703 109.362 259.41 109.69V109.69Z" fill="#EDF3FB"/>
<path d="M242.6 79.25C243.106 83.61 243.52 87.9667 243.84 92.32C244.12 96.12 244.44 99.92 244.84 103.72C244.846 104.912 244.967 106.101 245.2 107.27C245.35 107.78 245.26 108.27 244.5 108.11C243.1 107.85 241.7 107.56 240.28 107.36C239.57 107.26 239.4 106.89 239.52 106.3C240.24 102.71 240.42 99.05 240.83 95.43C241.22 91.96 241.73 88.5 241.92 85.01C242 83.08 242.36 81.17 242.6 79.25Z" fill="#EDF3FB"/>
<path d="M138.17 93.0698L138.22 93.3598C138.45 93.7498 138.85 93.7798 139.22 93.8598C141.82 94.4198 144.41 95.0198 147.01 95.5498C147.84 95.7198 147.94 96.0898 147.8 96.8598C147.66 97.6298 147.06 98.3398 147.51 99.5098C147.79 98.6776 148.021 97.8294 148.2 96.9698C148.32 96.1098 148.75 95.8998 149.52 96.0798L158.81 98.1798C158.783 99.2895 158.652 100.394 158.42 101.48C158.36 101.97 158.16 102 157.82 101.92C153.38 100.92 148.93 100.04 144.5 99.0398C142.1 98.4998 139.72 97.8098 137.33 97.2098C136.91 97.0998 136.4 96.9598 136.65 96.4898C137.27 95.3898 137.34 94.0698 138.17 93.0698Z" fill="#F4C25A"/>
<path d="M240.2 82.75C240.268 84.8153 240.08 86.881 239.64 88.9C239.15 92.59 238.58 96.28 238.03 99.96C237.72 102.04 237.37 104.11 237.09 106.19C237 106.85 236.59 106.86 236.15 106.78C235.71 106.7 234.9 106.72 234.91 105.78C234.91 104.38 234.91 102.98 234.91 101.58C234.91 100.58 234.51 100.12 233.54 100.04C231.37 99.85 231.33 99.81 232.27 97.97C234.8 92.97 237.36 88.04 239.91 83.07C239.999 82.957 240.096 82.8501 240.2 82.75Z" fill="#EDF3FB"/>
<path d="M73.3904 130.3C72.8122 131.68 72.4156 133.128 72.2105 134.61C71.6212 137.071 71.2101 139.57 70.9804 142.09C70.9796 142.485 71.0064 142.879 71.0605 143.27C68.851 142.348 66.9008 140.899 65.3804 139.05C63.0404 135.94 63.8104 132.44 67.3804 130.85C69.2694 130.013 71.381 129.82 73.3904 130.3V130.3Z" fill="#EDF3FB"/>
<path d="M167.271 62.4099C167.257 62.3144 167.271 62.217 167.31 62.1287C167.349 62.0404 167.411 61.9647 167.491 61.9099C168.771 61.9099 170.041 61.9099 171.321 61.9099C172.011 61.9099 172.321 61.7499 172.321 60.9799C172.321 57.6466 172.321 54.3366 172.321 51.0499C172.321 50.2699 171.991 50.05 171.321 50.14C170.385 50.3217 169.433 50.4021 168.481 50.3799V49.6599C169.401 49.6599 170.311 49.6599 171.231 49.6599C171.831 49.6599 172.091 49.4699 172.081 48.8299C172.081 46.6399 172.081 44.4499 172.081 42.2599C172.081 41.8799 172.081 41.5399 171.551 41.4999C170.841 41.4399 170.141 41.3399 169.431 41.2499C169.611 37.9999 169.991 34.7699 170.321 31.5399C170.541 29.3299 170.801 27.1199 170.881 24.8999C170.84 24.3028 170.98 23.7073 171.281 23.1899C171.621 26.3299 172.161 29.33 172.371 32.39C172.581 35.45 173.041 38.2199 173.371 41.1299C173.701 44.0399 174.161 46.7899 174.261 49.6499C174.261 49.8499 174.151 50.11 173.941 50.09C172.661 49.96 172.811 50.8299 172.811 51.6299C172.811 54.1799 172.811 56.73 172.811 59.28C172.811 62.15 172.811 62.1499 175.701 62.1199C175.271 63.0499 174.451 62.5399 173.831 62.5699C173.211 62.5999 172.831 62.8199 172.831 63.5699C172.831 64.9999 173.261 66.3899 173.091 67.8199L172.851 67.89H172.611L172.271 67.6899C172.398 66.1667 172.425 64.6367 172.351 63.1099C172.351 62.6999 172.061 62.55 171.711 62.59C170.151 62.81 168.711 62.3199 167.271 62.4099Z" fill="#EDF3FB"/>
<path d="M112.971 140.28C105.971 142.43 98.9107 144.48 91.4707 145.33C91.6507 144.48 92.2507 144.07 92.5607 143.48C93.0407 142.56 93.5607 141.67 94.0007 140.73C95.0007 138.52 95.0007 138.55 97.3807 138.8C102.561 139.35 107.721 140.17 112.971 140.28Z" fill="#C8D9E2"/>
<path d="M158.1 66.4399L156.21 66.5099L155.95 66.4199C156.08 64.7899 156.78 63.2899 157.05 61.6999C157.13 61.2299 157.27 60.7699 156.58 60.7599C154.76 60.7599 152.99 60.1699 151.16 60.2599C151.145 60.1656 151.158 60.0691 151.197 59.982C151.236 59.895 151.3 59.8213 151.38 59.7699C153.14 59.6299 154.81 60.3799 156.57 60.2699C157.08 60.2699 157.5 60.1999 157.66 59.5899C158.51 56.3799 159.38 53.1699 160.23 49.9499C160.38 49.3899 160.13 49.0399 159.51 48.9499C158.256 48.762 156.988 48.6817 155.72 48.7099C155.709 48.6148 155.724 48.5185 155.765 48.4318C155.806 48.3452 155.87 48.2717 155.95 48.2199C157.217 48.2334 158.483 48.3169 159.74 48.4699C160.26 48.4699 160.63 48.3699 160.74 47.7599C161.28 45.5699 161.84 43.3899 162.48 41.2299C162.72 40.4399 162.41 40.2299 161.76 40.0999C160.86 39.9799 159.95 39.9199 159.05 39.8399L159.5 39.3399C160.28 39.4799 161.1 39.4699 161.84 39.6799C162.78 39.9399 162.92 39.4899 163.11 38.8299C163.42 37.7699 163.64 36.6899 163.99 35.6399C164.77 33.3299 164.55 33.0599 162.15 32.8799V32.4099C162.425 32.4115 162.699 32.435 162.97 32.4799C164.64 32.8999 164.64 32.8999 165.06 31.2599C165.6 29.1699 165.6 29.1699 163.36 28.7999L168.36 16.1599C168.403 15.9869 168.484 15.8255 168.596 15.6872C168.708 15.5489 168.85 15.4371 169.01 15.3599C168.83 16.9399 168.69 18.3599 168.51 19.8199C168.144 22.7265 167.77 25.6332 167.39 28.5399C167.16 30.3099 166.91 32.0699 166.67 33.8299C164.91 33.5499 164.92 33.5499 164.45 35.3499C164.14 36.5299 163.87 37.7299 163.45 38.8899C163.17 39.7499 163.45 40.1199 164.28 40.0699C164.833 40.0723 165.382 40.1566 165.91 40.3199V40.7999C165.41 40.6999 164.91 40.5999 164.39 40.5399C164.189 40.4895 163.979 40.4842 163.775 40.5245C163.571 40.5647 163.379 40.6495 163.212 40.7728C163.044 40.896 162.906 41.0547 162.808 41.2374C162.709 41.4202 162.652 41.6225 162.64 41.8299C162.2 43.6799 161.7 45.5199 161.21 47.3499C160.98 48.1799 160.78 48.7899 162.12 48.7899C162.97 48.7899 163.85 48.9499 164.72 48.9599V49.4399C163.688 49.4701 162.656 49.3896 161.64 49.1999C161.05 49.1299 160.74 49.2999 160.57 49.9699C159.75 53.2399 158.87 56.4999 157.96 59.7599C157.8 60.3199 157.96 60.4599 158.46 60.5199C160.07 60.7299 161.67 60.9699 163.28 61.1999V61.6799C162.5 61.5399 161.72 61.4099 160.94 61.2599C157.73 60.6299 157.63 60.6899 156.84 63.8499C156.84 63.9699 156.84 64.0899 156.78 64.1999C156.47 65.9999 156.47 65.9999 158.1 66.4399Z" fill="#EDF3FB"/>
<path d="M172.191 67.7602L172.531 67.9602C172.531 70.9002 172.531 73.8436 172.531 76.7902C172.531 78.3302 172.401 78.3902 170.901 78.1702C169.401 77.9502 167.991 77.8902 166.531 77.7702C166.221 77.7702 165.821 77.6902 166.041 78.2402C165.861 78.8002 166.451 79.5802 165.551 79.9302C165.711 75.5902 166.241 71.2902 166.761 66.9902L172.191 67.7602Z" fill="#F4C25A"/>
<path d="M145.381 74.6402C146.241 72.4102 147.131 70.1802 147.961 67.9402C148.051 67.5607 148.272 67.2249 148.584 66.9911C148.897 66.7572 149.281 66.6402 149.671 66.6602L155.241 66.4502H155.351H155.461L155.721 66.5402C155.311 69.0102 154.461 71.3702 153.871 73.7902C153.341 75.9802 153.321 75.8802 151.091 75.5202C149.221 75.2202 147.391 74.6002 145.461 74.7202L145.381 74.6402Z" fill="#F4C25A"/>
<path d="M155.721 48.7301C156.989 48.7019 158.257 48.7822 159.511 48.9701C160.131 49.0301 160.381 49.3801 160.231 49.9701C159.391 53.1901 158.511 56.3901 157.661 59.6101C157.501 60.2201 157.081 60.2601 156.571 60.2901C154.811 60.4001 153.141 59.6501 151.381 59.7901C152.761 56.0601 154.111 52.3401 155.721 48.7301Z" fill="#EDF3FB"/>
<path d="M163.399 61.2099C161.789 60.9799 160.189 60.7399 158.579 60.5299C158.079 60.4599 157.919 60.3299 158.079 59.7699C158.979 56.5199 159.869 53.2599 160.689 49.9799C160.859 49.3099 161.169 49.1399 161.759 49.2099C162.774 49.3997 163.807 49.4801 164.839 49.4499C164.486 52.3899 164.133 55.3299 163.779 58.2699C163.659 59.2599 163.519 60.2299 163.399 61.2099Z" fill="#EDF3FB"/>
<path d="M168.439 50.4099C169.392 50.4321 170.344 50.3517 171.279 50.1699C171.959 50.1099 172.279 50.2999 172.279 51.0799C172.279 54.4133 172.279 57.7233 172.279 61.0099C172.279 61.7799 171.959 61.9599 171.279 61.9399C169.999 61.9399 168.729 61.9399 167.449 61.9399C167.519 58.0599 168.079 54.2399 168.439 50.4099Z" fill="#EDF3FB"/>
<path d="M172.76 67.9699L173 67.8999C174.11 68.1599 175.18 68.6899 176.37 68.4399C176.745 69.3055 176.945 70.2366 176.96 71.1799C177.28 73.6599 177.44 76.1799 177.66 78.6599L177.54 78.7599C176.403 78.5997 175.258 78.5095 174.11 78.4899C173.28 78.5699 172.99 78.1699 173.01 77.3599C173.01 75.3599 173.01 73.2999 173.01 71.2799C173.118 70.1704 173.033 69.0506 172.76 67.9699V67.9699Z" fill="#F4C25A"/>
<path d="M155.271 66.4402L149.701 66.6502C148.981 66.5402 148.701 66.2302 149.051 65.4802C149.791 63.7502 150.481 62.0002 151.181 60.2502C153.011 60.1602 154.781 60.7402 156.601 60.7502C157.291 60.7502 157.141 61.2202 157.071 61.6902C156.801 63.2902 156.071 64.7902 155.971 66.4102L155.741 66.5202L155.481 66.4302C155.391 66.3302 155.271 66.3402 155.271 66.4402Z" fill="#EDF3FB"/>
<path d="M173.449 103.42H179.009C176.438 103.679 173.849 103.729 171.269 103.57C168.929 103.51 166.619 103.04 164.269 102.94C163.049 102.89 163.099 102.22 163.269 101.45C163.515 100.61 163.586 99.7285 163.479 98.8599C166.019 99.1899 168.549 99.5599 171.099 99.8599C172.979 100.06 172.949 99.9999 173.019 101.93C173.039 102.41 172.569 103.14 173.449 103.42Z" fill="#F4C25A"/>
<path d="M159.09 39.8501C159.99 39.9401 160.9 40.0001 161.8 40.1101C162.44 40.1901 162.8 40.4501 162.52 41.2401C161.88 43.4001 161.32 45.5901 160.78 47.7701C160.63 48.3901 160.26 48.4801 159.78 48.4801C158.522 48.3271 157.257 48.2436 155.99 48.2301C156.78 45.5801 157.99 43.1001 158.91 40.5101C158.94 40.3001 159.01 40.0701 159.09 39.8501Z" fill="#EDF3FB"/>
<path d="M155.73 66.57L155.96 66.46L156.22 66.55C155.54 69.25 154.88 71.95 154.22 74.64C153.99 75.54 153.93 76.08 155.22 76.21C157.219 76.4645 159.197 76.8622 161.14 77.4C160.705 77.6022 160.211 77.6412 159.75 77.51C158 77.17 156.25 76.8 154.47 76.59C153.94 76.53 153.74 76.52 153.59 77.12C152.043 82.9266 150.466 88.7433 148.86 94.57C148.67 95.28 148.95 95.57 149.54 95.66L158.85 97.66V98.16L149.56 96.06C148.8 95.89 148.37 96.06 148.24 96.95C148.06 97.8096 147.83 98.6578 147.55 99.49C147.1 98.32 147.7 97.6 147.84 96.84C147.98 96.08 147.84 95.7 147.05 95.53C144.45 95 141.86 94.4 139.26 93.84C138.87 93.76 138.47 93.73 138.26 93.34C140.585 93.6347 142.89 94.0755 145.16 94.66C145.67 94.75 146.16 94.87 146.67 94.99C148.24 95.37 148.26 95.37 148.67 93.81C150.1 88.35 151.5 82.88 152.96 77.43C153.21 76.49 153.05 76.16 152.03 76.04C150.03 75.8 147.95 75.4 145.92 75.04C145.821 75.0227 145.729 74.9764 145.656 74.907C145.583 74.8376 145.532 74.7482 145.51 74.65C147.44 74.53 149.27 75.15 151.14 75.45C153.38 75.81 153.39 75.91 153.92 73.72C154.47 71.35 155.32 69 155.73 66.57Z" fill="#FFCD34"/>
<path d="M158.101 66.4402C156.471 66.0002 156.471 66.0002 156.901 64.2102C156.901 64.0902 156.901 63.9702 156.961 63.8602C157.751 60.7002 157.851 60.6402 161.061 61.2702C161.841 61.4202 162.621 61.5502 163.401 61.6902L162.661 66.5402L158.101 66.4402Z" fill="#EDF3FB"/>
<path d="M164.839 48.9699C163.969 48.9699 163.089 48.8 162.239 48.8C160.909 48.8 161.109 48.1899 161.329 47.3599C161.829 45.5199 162.329 43.69 162.759 41.84C162.771 41.6326 162.828 41.4302 162.927 41.2475C163.026 41.0648 163.163 40.9061 163.331 40.7828C163.498 40.6596 163.69 40.5748 163.894 40.5346C164.098 40.4943 164.308 40.4995 164.509 40.55C165.029 40.61 165.509 40.71 166.029 40.81C165.599 42.46 165.609 44.17 165.309 45.81C165.245 46.8749 165.087 47.9322 164.839 48.9699V48.9699Z" fill="#EDF3FB"/>
<path d="M173.45 103.42C172.57 103.14 173.03 102.42 173.02 101.91C172.95 99.9702 173.02 100.03 171.1 99.8402C168.56 99.5702 166.02 99.2002 163.48 98.8402C163.38 98.6702 163.48 98.6502 163.62 98.6102H164.11C166.68 98.8802 169.27 99.0302 171.81 99.4602C172.96 99.6502 173.03 99.2702 172.99 98.4002C172.76 93.7302 172.72 89.0602 172.75 84.4002C172.75 82.8802 172.75 81.4002 172.75 79.8402C172.75 79.1102 172.54 78.7802 171.75 78.7102C169.85 78.5202 167.96 78.2802 166.04 78.2502C165.82 77.7002 166.22 77.7502 166.53 77.7802C167.99 77.9002 169.45 77.9702 170.9 78.1802C172.35 78.3902 172.53 78.3402 172.53 76.8002C172.53 73.8602 172.53 70.9169 172.53 67.9702H172.77C173.04 69.0515 173.121 70.1713 173.01 71.2802C173.01 73.2802 173.01 75.3402 173.01 77.3602C173.01 78.1702 173.28 78.5702 174.11 78.4902C175.258 78.5098 176.403 78.6 177.54 78.7602C177.54 79.1402 177.28 79.2802 176.98 79.1802C175.98 78.8302 174.9 79.1802 173.9 78.9002C173.08 78.7002 172.97 79.1402 173.03 79.7302C173.5 84.9502 173.1 90.1702 173.28 95.3902C173.28 96.5402 173.53 97.6802 173.48 98.8402C173.48 99.8402 174.2 99.7602 174.79 99.8402C175.89 99.9702 177 100.02 178.11 100.11C178.376 100.105 178.64 100.161 178.88 100.274C179.121 100.386 179.333 100.553 179.5 100.76C177.89 100.58 176.27 100.47 174.68 100.2C173.78 100.05 173.41 100.2 173.47 101.2C173.52 101.9 173.46 102.66 173.45 103.42Z" fill="#FFCD34"/>
<path d="M175.649 62.1599C172.759 62.1599 172.759 62.1599 172.759 59.3199C172.759 56.7699 172.759 54.22 172.759 51.67C172.759 50.87 172.609 49.9999 173.889 50.1299C174.099 50.1299 174.179 49.8899 174.209 49.6899C174.603 51.1754 174.815 52.7033 174.839 54.2399C175.245 56.8642 175.516 59.5078 175.649 62.1599V62.1599Z" fill="#EDF3FB"/>
<path d="M169.389 41.29C170.099 41.37 170.799 41.47 171.509 41.54C172.019 41.54 172.039 41.93 172.039 42.3C172.039 44.49 172.039 46.68 172.039 48.87C172.039 49.5 171.789 49.71 171.189 49.7C170.279 49.7 169.359 49.7 168.439 49.7C168.679 47.04 168.919 44.37 169.179 41.7C169.225 41.552 169.296 41.4132 169.389 41.29V41.29Z" fill="#EDF3FB"/>
<path d="M172.19 67.7598L166.77 66.9998L167.24 62.4198C168.71 62.3298 170.15 62.8198 171.62 62.6698C171.97 62.6698 172.27 62.7798 172.26 63.1898C172.336 64.713 172.313 66.2397 172.19 67.7598V67.7598Z" fill="#EDF3FB"/>
<path d="M162.179 32.8799C164.579 33.0599 164.799 33.3299 164.019 35.6399C163.669 36.6899 163.449 37.7699 163.139 38.8299C162.949 39.4999 162.809 39.9399 161.869 39.6799C161.139 39.4799 160.309 39.4799 159.529 39.3399C160.032 37.0492 160.928 34.8633 162.179 32.8799Z" fill="#EDF3FB"/>
<path d="M176.37 68.4402C175.18 68.6902 174.11 68.1602 173 67.9002C173.16 66.4702 172.71 65.0802 172.74 63.6502C172.74 62.8702 173.02 62.6502 173.74 62.6502C174.46 62.6502 175.19 63.1302 175.61 62.2002C176.045 64.2539 176.3 66.3419 176.37 68.4402V68.4402Z" fill="#EDF3FB"/>
<path d="M166.04 40.3299C165.512 40.1666 164.962 40.0823 164.41 40.0799C163.54 40.1299 163.3 39.7599 163.58 38.8999C163.96 37.7399 164.23 36.5499 164.58 35.3599C165.04 33.5699 165.04 33.5699 166.8 33.8399L166.04 40.3299Z" fill="#EDF3FB"/>
<path d="M163.409 28.8101C165.649 29.1801 165.649 29.1801 165.109 31.2701C164.689 32.9101 164.689 32.9001 163.019 32.4901C162.748 32.4451 162.474 32.4217 162.199 32.4201C162.349 31.1301 163.179 30.0701 163.409 28.8101Z" fill="#EDF3FB"/>
<path d="M165.069 85.2002C165.409 88.2002 164.299 91.2002 164.589 94.2502C164.601 94.3196 164.597 94.3907 164.579 94.4585C164.56 94.5263 164.526 94.5892 164.481 94.6426C164.435 94.6961 164.378 94.7388 164.314 94.7677C164.249 94.7967 164.18 94.8112 164.109 94.8102C164.158 91.5855 164.479 88.3708 165.069 85.2002V85.2002Z" fill="#F4C25A"/>
<path d="M165.54 80.3701C165.54 81.6801 165.54 82.9901 165.54 84.3001C165.54 84.6801 165.65 85.1401 165.05 85.2001C164.941 83.574 165.106 81.941 165.54 80.3701V80.3701Z" fill="#F4C25A"/>
<path d="M164.121 98.62H163.631C163.592 97.4714 163.751 96.3246 164.101 95.23L164.121 98.62Z" fill="#F4C25A"/>
<path d="M179.48 103.45C179.56 102.88 180.01 102.82 180.48 102.73C180.71 103.76 180.05 103.57 179.48 103.45Z" fill="#F4C25A"/>
<path d="M179.849 70.1201V70.8001C179.802 70.757 179.764 70.7045 179.738 70.646C179.713 70.5874 179.699 70.5241 179.699 70.4601C179.699 70.3961 179.713 70.3328 179.738 70.2743C179.764 70.2157 179.802 70.1632 179.849 70.1201V70.1201Z" fill="#EDF3FB"/>
<path d="M222.699 98.7202H223.379C223.335 98.7662 223.283 98.8028 223.224 98.8278C223.166 98.8528 223.103 98.8657 223.039 98.8657C222.976 98.8657 222.913 98.8528 222.854 98.8278C222.796 98.8028 222.743 98.7662 222.699 98.7202V98.7202Z" fill="#EDF3FB"/>
<path d="M180.471 102.34V101.53C180.771 101.79 180.701 102.06 180.471 102.34Z" fill="#F4C25A"/>
<path d="M84.2006 100.82L84.1406 100.91L84.1906 100.81L84.2006 100.82Z" fill="white"/>
<path d="M35.2697 122.9L35.1797 122.84L35.2797 122.89L35.2697 122.9Z" fill="white"/>
<path d="M85.6697 103.46L85.4297 103.78L85.6697 103.46Z" fill="white"/>
<path d="M255.59 75.41C255.06 76.46 253.59 76.41 253.09 77.69C253.292 77.8641 253.506 78.0245 253.73 78.1701C253.818 78.2123 253.898 78.2724 253.962 78.3464C254.027 78.4205 254.076 78.5071 254.106 78.6008C254.136 78.6945 254.146 78.7934 254.137 78.8913C254.127 78.9892 254.097 79.0841 254.05 79.1701C253.83 79.5901 253.49 79.1701 253.2 79.1701C252.91 79.1701 252.74 78.9901 252.51 79.0101C252.13 79.0101 251.71 79.3401 251.51 78.7901C251.31 78.2401 252.02 78.2601 252.1 77.7901C251.1 77.5001 250.7 76.2001 249.42 76.3101C249.369 76.3094 249.32 76.297 249.275 76.2737C249.231 76.2504 249.192 76.217 249.163 76.1761C249.134 76.1352 249.115 76.088 249.107 76.0383C249.1 75.9886 249.104 75.9378 249.12 75.8901C249.2 75.6001 249.42 75.7601 249.6 75.7601C250.472 75.8007 251.299 76.156 251.93 76.7601C252.42 77.1701 252.72 77.1301 253.21 76.6801C253.875 76.0508 254.675 75.5822 255.55 75.3101L255.59 75.41Z" fill="#C8D9E2"/>
<path d="M280.2 112.65C280.65 113.9 281.25 114.03 282.14 113.5C282.478 113.36 282.84 113.288 283.205 113.288C283.571 113.288 283.933 113.36 284.27 113.5C283.744 113.905 283.126 114.173 282.47 114.28C281.82 114.28 281.32 114.68 281.34 115.38C281.34 116.31 280.6 115.99 280.46 115.81C280.11 115.38 279.2 115.06 279.91 114.18C280.15 113.87 280.08 113.35 280.2 112.65Z" fill="#C8D9E2"/>
<path d="M278.971 76.5701C279.631 75.6401 280.121 74.9301 280.631 74.2301C280.791 74.0201 280.951 73.7201 281.281 73.7901C281.436 73.8357 281.574 73.9285 281.674 74.0557C281.774 74.1829 281.833 74.3383 281.841 74.5001C281.961 75.2301 282.081 75.9601 282.271 76.6801C281.461 76.1801 281.511 75.3001 281.341 74.4301C280.391 74.9201 280.271 76.1701 278.971 76.5701Z" fill="#C8D9E2"/>
<path d="M254.75 90.9002C255.68 89.3202 256.64 89.1702 260.18 90.0702C258.34 90.0902 256.32 89.0702 254.75 90.9002Z" fill="#C8D9E2"/>
<path d="M270.69 75.3901C269.17 77.2301 269.69 77.2601 267.51 76.3901C267.03 76.2101 266.51 76.4701 265.92 76.0401C266.181 75.889 266.473 75.8021 266.774 75.7864C267.075 75.7708 267.375 75.8269 267.65 75.9501C267.832 76.1055 268.046 76.2182 268.277 76.2799C268.508 76.3416 268.75 76.3507 268.985 76.3066C269.22 76.2625 269.442 76.1662 269.635 76.0249C269.828 75.8836 269.987 75.7008 270.1 75.4901C270.19 75.3701 270.46 75.3801 270.65 75.3301L270.69 75.3901Z" fill="#C8D9E2"/>
<path d="M283.72 88.0601C281.84 85.8301 281.61 86.0601 279.6 87.2901C279.756 86.8251 280.077 86.4337 280.503 86.1903C280.929 85.9469 281.43 85.8685 281.91 85.9701C282.402 86.0657 282.847 86.3236 283.176 86.7025C283.504 87.0814 283.695 87.5594 283.72 88.0601V88.0601Z" fill="#C8D9E2"/>
<path d="M285.571 99.1199C286.111 99.7599 286.571 99.7499 287.171 99.1199C287.316 98.9343 287.497 98.7791 287.702 98.6635C287.908 98.5479 288.134 98.474 288.368 98.4461C288.603 98.4183 288.84 98.4369 289.067 98.5011C289.294 98.5652 289.506 98.6736 289.691 98.8199C289.179 98.7879 288.666 98.86 288.183 99.0319C287.7 99.2038 287.257 99.4718 286.881 99.8199C285.881 100.66 285.701 100.49 285.551 99.1399L285.571 99.1199Z" fill="#C8D9E2"/>
<path d="M254.68 99.6802C253.23 99.5102 252.38 101.83 250.68 100.51C252.27 101.05 253.12 99.1202 254.68 99.6802Z" fill="#C8D9E2"/>
<path d="M250.061 83.3801C249.681 83.8401 249.061 83.8701 249.061 84.4801C249.061 84.7701 249.161 85.1801 248.711 85.2401C248.261 85.3001 248.201 84.9201 247.991 84.6901C247.836 84.5667 247.729 84.3939 247.688 84.2009C247.646 84.0079 247.671 83.8063 247.761 83.6301C248.221 83.6901 247.991 84.3301 248.431 84.3601C248.851 83.9101 249.021 83.1101 250.061 83.3801Z" fill="#C8D9E2"/>
<path d="M269.27 91.9302C269.27 92.3802 268.94 92.4102 268.61 92.4002C268.28 92.3902 267.61 92.3502 267.49 92.9802C267.482 93.0399 267.459 93.0965 267.422 93.144C267.385 93.1916 267.336 93.2285 267.28 93.2508C267.224 93.2732 267.163 93.2803 267.103 93.2714C267.043 93.2625 266.987 93.2379 266.94 93.2002C266.802 93.071 266.714 92.8977 266.69 92.7102C266.676 92.6519 266.674 92.5911 266.685 92.532C266.696 92.473 266.721 92.4172 266.756 92.3685C266.791 92.3198 266.837 92.2795 266.889 92.2504C266.942 92.2214 267 92.2042 267.06 92.2002L269.28 91.9302H269.27Z" fill="#C8D9E2"/>
<path d="M295.841 108.68C296.351 108.68 296.761 108.87 296.741 109.47C296.741 109.8 296.491 110.17 296.171 110.07C295.949 109.994 295.756 109.851 295.618 109.662C295.481 109.472 295.405 109.244 295.401 109.01C295.371 108.71 295.491 108.57 295.841 108.68Z" fill="#C8D9E2"/>
<path d="M270.65 75.3501C270.78 74.7601 271.06 74.3501 271.97 74.5801L270.69 75.3901L270.65 75.3501Z" fill="#C8D9E2"/>
<path d="M255.539 75.35C255.729 75.1 255.919 74.83 256.319 75C256.229 75.43 255.869 75.35 255.589 75.41L255.539 75.35Z" fill="#C8D9E2"/>
<path d="M269.27 91.9401C269.54 91.6201 269.87 91.6501 270.27 91.8001C269.93 92.0301 269.59 91.9101 269.27 91.9401Z" fill="#C8D9E2"/>
<path d="M285.551 99.1398L285.381 98.8898L285.461 98.8198L285.581 99.1198L285.551 99.1398Z" fill="#C8D9E2"/>
<path d="M263.83 126.87C264.05 127.32 263.7 127.52 263.33 127.69C262.95 127.883 262.61 128.148 262.33 128.47C261.33 129.47 260.82 129.34 260.26 127.83C262.08 129.57 262.49 126.82 263.83 126.87Z" fill="#C8D9E2"/>
<path d="M259.41 109.69C258.696 109.375 257.929 109.201 257.15 109.18C256.85 109.18 256.44 109.02 256.55 108.61C256.7 108.05 257.009 108.43 257.259 108.61C257.626 108.764 258.028 108.809 258.42 108.74C258.97 108.72 259.27 108.9 259.41 109.69Z" fill="#C8D9E2"/>
<path d="M155.27 66.4401C155.34 66.3401 155.41 66.3301 155.49 66.4401H155.38H155.27Z" fill="#DAF0F3"/>
<path d="M229.06 195.12C232.269 195.12 234.87 192.519 234.87 189.31C234.87 186.101 232.269 183.5 229.06 183.5C225.851 183.5 223.25 186.101 223.25 189.31C223.25 192.519 225.851 195.12 229.06 195.12Z" fill="white"/>
<path d="M268.759 213.42C271.968 213.42 274.569 210.819 274.569 207.61C274.569 204.401 271.968 201.8 268.759 201.8C265.55 201.8 262.949 204.401 262.949 207.61C262.949 210.819 265.55 213.42 268.759 213.42Z" fill="white"/>
<path d="M163.99 216.53C167.198 216.53 169.8 213.929 169.8 210.72C169.8 207.511 167.198 204.91 163.99 204.91C160.781 204.91 158.18 207.511 158.18 210.72C158.18 213.929 160.781 216.53 163.99 216.53Z" fill="white"/>
<path d="M203.169 254.5C206.378 254.5 208.979 251.899 208.979 248.69C208.979 245.481 206.378 242.88 203.169 242.88C199.961 242.88 197.359 245.481 197.359 248.69C197.359 251.899 199.961 254.5 203.169 254.5Z" fill="white"/>
<path d="M254.089 287.3C257.298 287.3 259.899 284.699 259.899 281.49C259.899 278.281 257.298 275.68 254.089 275.68C250.881 275.68 248.279 278.281 248.279 281.49C248.279 284.699 250.881 287.3 254.089 287.3Z" fill="white"/>
<path d="M138.96 325.27C142.169 325.27 144.77 322.669 144.77 319.46C144.77 316.251 142.169 313.65 138.96 313.65C135.752 313.65 133.15 316.251 133.15 319.46C133.15 322.669 135.752 325.27 138.96 325.27Z" fill="white"/>
<path d="M100.98 276.6C104.189 276.6 106.79 273.999 106.79 270.79C106.79 267.581 104.189 264.98 100.98 264.98C97.7712 264.98 95.1699 267.581 95.1699 270.79C95.1699 273.999 97.7712 276.6 100.98 276.6Z" fill="white"/>
<path d="M81.8198 225.04C85.0285 225.04 87.6298 222.439 87.6298 219.23C87.6298 216.021 85.0285 213.42 81.8198 213.42C78.611 213.42 76.0098 216.021 76.0098 219.23C76.0098 222.439 78.611 225.04 81.8198 225.04Z" fill="white"/>
<path d="M26.4702 231.37C29.6789 231.37 32.2802 228.769 32.2802 225.56C32.2802 222.351 29.6789 219.75 26.4702 219.75C23.2614 219.75 20.6602 222.351 20.6602 225.56C20.6602 228.769 23.2614 231.37 26.4702 231.37Z" fill="white"/>
<path d="M28.4995 272.68C31.7082 272.68 34.3095 270.079 34.3095 266.87C34.3095 263.661 31.7082 261.06 28.4995 261.06C25.2907 261.06 22.6895 263.661 22.6895 266.87C22.6895 270.079 25.2907 272.68 28.4995 272.68Z" fill="white"/>
<path d="M268.76 207.61L273.82 148.09" stroke="white" stroke-width="0.5" stroke-miterlimit="10"/>
<path d="M229.061 189.31L254.781 146.22" stroke="white" stroke-width="0.5" stroke-miterlimit="10"/>
<path d="M254.09 282.41L268.76 209.57" stroke="white" stroke-width="0.5" stroke-miterlimit="10"/>
<path d="M203.17 248.69L267.9 209.05" stroke="white" stroke-width="0.5" stroke-miterlimit="10"/>
<path d="M163.99 210.72L229.06 189.31" stroke="white" stroke-width="0.5" stroke-miterlimit="10"/>
<path d="M229.06 189.31L203.17 248.69" stroke="white" stroke-width="0.5" stroke-miterlimit="10"/>
<path d="M254.09 281.49L229.92 189.31" stroke="white" stroke-width="0.5" stroke-miterlimit="10"/>
<path d="M163.99 210.72L269.45 207.67" stroke="white" stroke-width="0.5" stroke-miterlimit="10"/>
<path d="M81.8203 219.23L165.02 211.46" stroke="white" stroke-width="0.5" stroke-miterlimit="10"/>
<path d="M100.119 270.79L163.989 212.33" stroke="white" stroke-width="0.5" stroke-miterlimit="10"/>
<path d="M139.471 318.83L163.991 210.72" stroke="white" stroke-width="0.5" stroke-miterlimit="10"/>
<path d="M203.171 249.44L139.471 318.83" stroke="white" stroke-width="0.5" stroke-miterlimit="10"/>
<path d="M254.091 281.49L138.961 319.46" stroke="white" stroke-width="0.5" stroke-miterlimit="10"/>
<path d="M100.98 270.79L254.09 281.49" stroke="white" stroke-width="0.5" stroke-miterlimit="10"/>
<path d="M203.17 248.69L100.98 270.79" stroke="white" stroke-width="0.5" stroke-miterlimit="10"/>
<path d="M81.8203 219.23L203.17 248.69" stroke="white" stroke-width="0.5" stroke-miterlimit="10"/>
<path d="M254.28 281.49L81.8203 219.23" stroke="white" stroke-width="0.5" stroke-miterlimit="10"/>
<path d="M26.4707 225.56L100.981 270.79" stroke="white" stroke-width="0.5" stroke-miterlimit="10"/>
<path d="M27.5 266.87L139.44 319.3" stroke="white" stroke-width="0.5" stroke-miterlimit="10"/>
<path d="M26.4707 225.56L138.961 319.46" stroke="white" stroke-width="0.5" stroke-miterlimit="10"/>
<path d="M81.8207 219.23L26.4707 225.56" stroke="white" stroke-width="0.5" stroke-miterlimit="10"/>
<path d="M27.5 266.87L81.82 219.23" stroke="white" stroke-width="0.5" stroke-miterlimit="10"/>
<path d="M100.98 270.79L27.5 266.87" stroke="white" stroke-width="0.5" stroke-miterlimit="10"/>
<path d="M283.9 212.06C280.9 211.27 274.53 209.58 268.75 207.62C258.06 203.98 243.75 198.98 228.75 188.23C225.07 185.642 221.569 182.808 218.27 179.75" stroke="white" stroke-width="0.5" stroke-miterlimit="10"/>
<path d="M265.51 287.3C243.502 276.527 222.62 263.594 203.17 248.69C180.29 230.88 169 217.19 163.99 210.69C160.19 205.79 157.26 201.51 155.24 198.43" stroke="white" stroke-width="0.5" stroke-miterlimit="10"/>
<path d="M80.1992 206.06C80.5392 210.38 81.0692 214.77 81.8092 219.24C90.1592 269.46 121.029 305.18 146.389 327.58" stroke="white" stroke-width="0.5" stroke-miterlimit="10"/>
<path d="M26.5801 218.03C24.171 227.653 23.2371 237.586 23.8101 247.49C24.4901 261.05 26.7401 269.31 29.5201 276.6" stroke="white" stroke-width="0.5" stroke-miterlimit="10"/>
     </symbol>
  </defs>
</svg>


